<svg width="218" height="325" viewBox="0 0 218 325" fill="none" xmlns="http://www.w3.org/2000/svg">
<path d="M1.29261 320V318.097L6.34233 313.146C6.82528 312.659 7.22775 312.225 7.54972 311.847C7.87169 311.468 8.11316 311.101 8.27415 310.746C8.43513 310.391 8.51562 310.012 8.51562 309.609C8.51562 309.15 8.41146 308.757 8.20312 308.43C7.99479 308.099 7.70833 307.843 7.34375 307.663C6.97917 307.483 6.56487 307.393 6.10085 307.393C5.62263 307.393 5.2036 307.493 4.84375 307.692C4.4839 307.886 4.20455 308.163 4.00568 308.523C3.81155 308.883 3.71449 309.311 3.71449 309.808H1.20739C1.20739 308.885 1.41809 308.082 1.83949 307.401C2.26089 306.719 2.84091 306.191 3.57955 305.817C4.32292 305.443 5.17519 305.256 6.13636 305.256C7.11174 305.256 7.96875 305.438 8.70739 305.803C9.44602 306.167 10.0189 306.667 10.4261 307.301C10.8381 307.936 11.044 308.66 11.044 309.474C11.044 310.019 10.9399 310.554 10.7315 311.08C10.5232 311.605 10.1563 312.187 9.63068 312.827C9.10985 313.466 8.37831 314.24 7.43608 315.149L4.92898 317.699V317.798H11.2642V320H1.29261ZM18.9347 320.199C17.9119 320.199 17.0028 320.024 16.2074 319.673C15.4167 319.323 14.7917 318.835 14.3324 318.21C13.8731 317.585 13.6293 316.863 13.6009 316.044H16.2713C16.295 316.437 16.4252 316.78 16.6619 317.074C16.8987 317.363 17.2135 317.588 17.6065 317.749C17.9995 317.91 18.4399 317.99 18.9276 317.99C19.4484 317.99 19.91 317.9 20.3125 317.72C20.715 317.536 21.0298 317.28 21.2571 316.953C21.4844 316.626 21.5956 316.25 21.5909 315.824C21.5956 315.384 21.482 314.995 21.25 314.659C21.018 314.323 20.6818 314.06 20.2415 313.871C19.8059 313.681 19.2803 313.587 18.6648 313.587H17.3793V311.555H18.6648C19.1714 311.555 19.6141 311.468 19.9929 311.293C20.3764 311.117 20.6771 310.871 20.8949 310.554C21.1127 310.232 21.2192 309.86 21.2145 309.439C21.2192 309.027 21.1269 308.67 20.9375 308.366C20.7528 308.059 20.4901 307.82 20.1491 307.649C19.813 307.479 19.4176 307.393 18.9631 307.393C18.518 307.393 18.1061 307.474 17.7273 307.635C17.3485 307.796 17.0431 308.026 16.8111 308.324C16.5791 308.617 16.456 308.968 16.4418 309.375H13.9062C13.9252 308.561 14.1596 307.846 14.6094 307.23C15.0639 306.61 15.67 306.127 16.4276 305.781C17.1851 305.431 18.035 305.256 18.9773 305.256C19.9479 305.256 20.7907 305.438 21.5057 305.803C22.2254 306.162 22.7817 306.648 23.1747 307.259C23.5677 307.869 23.7642 308.544 23.7642 309.283C23.7689 310.102 23.5275 310.788 23.0398 311.342C22.5568 311.896 21.9223 312.259 21.1364 312.429V312.543C22.1591 312.685 22.9427 313.063 23.4872 313.679C24.0365 314.29 24.3087 315.05 24.304 315.959C24.304 316.773 24.072 317.502 23.608 318.146C23.1487 318.786 22.5142 319.287 21.7045 319.652C20.8996 320.017 19.9763 320.199 18.9347 320.199ZM32.658 305.455V320H30.0231V308.018H29.9379L26.5359 310.192V307.777L30.1509 305.455H32.658ZM36.0884 317.301V315.206L42.2603 305.455H44.0075V308.438H42.9421L38.7873 315.021V315.135H47.4023V317.301H36.0884ZM43.0273 320V316.662L43.0558 315.724V305.455H45.5415V320H43.0273ZM59.9592 320.199C59.2631 320.194 58.5837 320.073 57.9208 319.837C57.2579 319.595 56.6613 319.205 56.131 318.665C55.6007 318.12 55.1793 317.398 54.8668 316.499C54.5543 315.594 54.4004 314.474 54.4052 313.139C54.4052 311.894 54.5378 310.784 54.8029 309.808C55.0681 308.833 55.4492 308.009 55.9464 307.337C56.4435 306.66 57.0425 306.143 57.7433 305.788C58.4487 305.433 59.2371 305.256 60.1083 305.256C61.0221 305.256 61.8318 305.436 62.5373 305.795C63.2475 306.155 63.8204 306.648 64.256 307.273C64.6916 307.893 64.9615 308.594 65.0657 309.375H62.4734C62.3408 308.816 62.0685 308.371 61.6566 308.04C61.2494 307.704 60.7333 307.536 60.1083 307.536C59.0998 307.536 58.3233 307.973 57.7788 308.849C57.239 309.725 56.9667 310.928 56.962 312.457H57.0614C57.2934 312.041 57.5941 311.683 57.9634 311.385C58.3327 311.087 58.7494 310.857 59.2134 310.696C59.6822 310.53 60.177 310.447 60.6978 310.447C61.5501 310.447 62.3147 310.651 62.9918 311.058C63.6737 311.465 64.2134 312.027 64.6112 312.741C65.0089 313.452 65.2054 314.266 65.2006 315.185C65.2054 316.141 64.9876 317 64.5472 317.763C64.1069 318.52 63.4937 319.117 62.7077 319.553C61.9218 319.988 61.0056 320.204 59.9592 320.199ZM59.945 318.068C60.4611 318.068 60.9227 317.943 61.3299 317.692C61.7371 317.441 62.0591 317.102 62.2958 316.676C62.5326 316.25 62.6486 315.772 62.6438 315.241C62.6486 314.721 62.5349 314.25 62.3029 313.828C62.0756 313.407 61.7608 313.073 61.3583 312.827C60.9558 312.58 60.4966 312.457 59.9805 312.457C59.5969 312.457 59.2395 312.531 58.908 312.678C58.5766 312.824 58.2878 313.028 58.0415 313.288C57.7953 313.544 57.6012 313.842 57.4592 314.183C57.3219 314.519 57.2508 314.879 57.2461 315.263C57.2508 315.769 57.3692 316.236 57.6012 316.662C57.8332 317.088 58.1528 317.429 58.56 317.685C58.9672 317.94 59.4289 318.068 59.945 318.068ZM67.3384 317.301V315.206L73.5103 305.455H75.2575V308.438H74.1921L70.0373 315.021V315.135H78.6523V317.301H67.3384ZM74.2773 320V316.662L74.3058 315.724V305.455H76.7915V320H74.2773ZM80.9215 320V318.097L85.9712 313.146C86.4542 312.659 86.8567 312.225 87.1786 311.847C87.5006 311.468 87.7421 311.101 87.9031 310.746C88.064 310.391 88.1445 310.012 88.1445 309.609C88.1445 309.15 88.0404 308.757 87.832 308.43C87.6237 308.099 87.3372 307.843 86.9727 307.663C86.6081 307.483 86.1938 307.393 85.7298 307.393C85.2515 307.393 84.8325 307.493 84.4727 307.692C84.1128 307.886 83.8335 308.163 83.6346 308.523C83.4405 308.883 83.3434 309.311 83.3434 309.808H80.8363C80.8363 308.885 81.047 308.082 81.4684 307.401C81.8898 306.719 82.4698 306.191 83.2085 305.817C83.9518 305.443 84.8041 305.256 85.7653 305.256C86.7406 305.256 87.5977 305.438 88.3363 305.803C89.0749 306.167 89.6478 306.667 90.055 307.301C90.467 307.936 90.6729 308.66 90.6729 309.474C90.6729 310.019 90.5688 310.554 90.3604 311.08C90.1521 311.605 89.7852 312.187 89.2596 312.827C88.7388 313.466 88.0072 314.24 87.065 315.149L84.5579 317.699V317.798H90.8931V320H80.9215ZM98.5636 320.199C97.5408 320.199 96.6317 320.024 95.8363 319.673C95.0456 319.323 94.4206 318.835 93.9613 318.21C93.502 317.585 93.2582 316.863 93.2298 316.044H95.9002C95.9239 316.437 96.0541 316.78 96.2908 317.074C96.5276 317.363 96.8424 317.588 97.2354 317.749C97.6284 317.91 98.0688 317.99 98.5565 317.99C99.0773 317.99 99.5389 317.9 99.9414 317.72C100.344 317.536 100.659 317.28 100.886 316.953C101.113 316.626 101.225 316.25 101.22 315.824C101.225 315.384 101.111 314.995 100.879 314.659C100.647 314.323 100.311 314.06 99.8704 313.871C99.4348 313.681 98.9092 313.587 98.2937 313.587H97.0082V311.555H98.2937C98.8003 311.555 99.243 311.468 99.6218 311.293C100.005 311.117 100.306 310.871 100.524 310.554C100.742 310.232 100.848 309.86 100.843 309.439C100.848 309.027 100.756 308.67 100.566 308.366C100.382 308.059 100.119 307.82 99.7781 307.649C99.4419 307.479 99.0465 307.393 98.592 307.393C98.1469 307.393 97.735 307.474 97.3562 307.635C96.9774 307.796 96.672 308.026 96.44 308.324C96.208 308.617 96.0849 308.968 96.0707 309.375H93.5352C93.5541 308.561 93.7885 307.846 94.2383 307.23C94.6928 306.61 95.2989 306.127 96.0565 305.781C96.814 305.431 97.6639 305.256 98.6062 305.256C99.5768 305.256 100.42 305.438 101.135 305.803C101.854 306.162 102.411 306.648 102.804 307.259C103.197 307.869 103.393 308.544 103.393 309.283C103.398 310.102 103.156 310.788 102.669 311.342C102.186 311.896 101.551 312.259 100.765 312.429V312.543C101.788 312.685 102.572 313.063 103.116 313.679C103.665 314.29 103.938 315.05 103.933 315.959C103.933 316.773 103.701 317.502 103.237 318.146C102.778 318.786 102.143 319.287 101.333 319.652C100.529 320.017 99.6052 320.199 98.5636 320.199ZM111.864 320L118.05 307.756V307.656H110.87V305.455H120.778V307.706L114.599 320H111.864ZM127.947 320.199C126.892 320.199 125.954 320.021 125.135 319.666C124.321 319.311 123.681 318.826 123.217 318.21C122.758 317.59 122.531 316.887 122.536 316.101C122.531 315.49 122.663 314.929 122.933 314.418C123.203 313.906 123.568 313.48 124.027 313.139C124.491 312.794 125.007 312.573 125.575 312.479V312.379C124.827 312.214 124.221 311.832 123.757 311.236C123.298 310.634 123.071 309.941 123.075 309.155C123.071 308.407 123.279 307.739 123.7 307.152C124.122 306.565 124.699 306.103 125.433 305.767C126.167 305.426 127.005 305.256 127.947 305.256C128.88 305.256 129.711 305.426 130.44 305.767C131.174 306.103 131.752 306.565 132.173 307.152C132.599 307.739 132.812 308.407 132.812 309.155C132.812 309.941 132.578 310.634 132.109 311.236C131.645 311.832 131.046 312.214 130.312 312.379V312.479C130.881 312.573 131.392 312.794 131.847 313.139C132.306 313.48 132.67 313.906 132.94 314.418C133.215 314.929 133.352 315.49 133.352 316.101C133.352 316.887 133.12 317.59 132.656 318.21C132.192 318.826 131.553 319.311 130.739 319.666C129.929 320.021 128.999 320.199 127.947 320.199ZM127.947 318.168C128.492 318.168 128.965 318.075 129.368 317.891C129.77 317.701 130.083 317.436 130.305 317.095C130.528 316.754 130.642 316.361 130.646 315.916C130.642 315.452 130.521 315.043 130.284 314.688C130.052 314.328 129.732 314.046 129.325 313.842C128.923 313.639 128.464 313.537 127.947 313.537C127.427 313.537 126.963 313.639 126.555 313.842C126.148 314.046 125.826 314.328 125.589 314.688C125.357 315.043 125.244 315.452 125.249 315.916C125.244 316.361 125.353 316.754 125.575 317.095C125.798 317.431 126.11 317.694 126.513 317.884C126.92 318.073 127.398 318.168 127.947 318.168ZM127.947 311.541C128.393 311.541 128.786 311.451 129.126 311.271C129.472 311.091 129.744 310.84 129.943 310.518C130.142 310.196 130.244 309.825 130.249 309.403C130.244 308.987 130.144 308.622 129.95 308.31C129.756 307.992 129.486 307.749 129.141 307.578C128.795 307.403 128.397 307.315 127.947 307.315C127.488 307.315 127.083 307.403 126.733 307.578C126.387 307.749 126.117 307.992 125.923 308.31C125.734 308.622 125.642 308.987 125.646 309.403C125.642 309.825 125.736 310.196 125.93 310.518C126.129 310.836 126.402 311.087 126.747 311.271C127.098 311.451 127.498 311.541 127.947 311.541ZM135.424 317.301V315.206L141.596 305.455H143.343V308.438H142.278L138.123 315.021V315.135H146.738V317.301H135.424ZM142.363 320V316.662L142.392 315.724V305.455H144.877V320H142.363ZM154.064 320.199C153.117 320.199 152.27 320.021 151.522 319.666C150.774 319.306 150.179 318.814 149.739 318.189C149.303 317.564 149.071 316.849 149.043 316.044H151.6C151.647 316.641 151.905 317.128 152.374 317.507C152.843 317.881 153.406 318.068 154.064 318.068C154.58 318.068 155.04 317.95 155.442 317.713C155.845 317.476 156.162 317.147 156.394 316.726C156.626 316.304 156.739 315.824 156.735 315.284C156.739 314.735 156.623 314.247 156.387 313.821C156.15 313.395 155.826 313.061 155.414 312.82C155.002 312.573 154.528 312.45 153.993 312.45C153.558 312.446 153.129 312.526 152.708 312.692C152.286 312.857 151.953 313.075 151.706 313.345L149.327 312.955L150.087 305.455H158.525V307.656H152.267L151.848 311.513H151.934C152.203 311.196 152.585 310.933 153.077 310.724C153.569 310.511 154.109 310.405 154.696 310.405C155.577 310.405 156.363 310.613 157.054 311.03C157.746 311.442 158.29 312.01 158.688 312.734C159.086 313.459 159.284 314.287 159.284 315.22C159.284 316.181 159.062 317.038 158.617 317.791C158.176 318.539 157.563 319.129 156.777 319.56C155.996 319.986 155.092 320.199 154.064 320.199ZM172.001 320.277C170.832 320.277 169.828 319.981 168.99 319.389C168.156 318.793 167.515 317.933 167.065 316.811C166.62 315.684 166.397 314.328 166.397 312.741C166.402 311.155 166.627 309.806 167.072 308.693C167.522 307.576 168.163 306.723 168.997 306.136C169.835 305.549 170.836 305.256 172.001 305.256C173.166 305.256 174.167 305.549 175.005 306.136C175.843 306.723 176.485 307.576 176.93 308.693C177.38 309.811 177.605 311.16 177.605 312.741C177.605 314.332 177.38 315.691 176.93 316.818C176.485 317.94 175.843 318.797 175.005 319.389C174.172 319.981 173.171 320.277 172.001 320.277ZM172.001 318.054C172.91 318.054 173.627 317.607 174.153 316.712C174.683 315.812 174.949 314.489 174.949 312.741C174.949 311.586 174.828 310.616 174.586 309.83C174.345 309.044 174.004 308.452 173.564 308.054C173.123 307.652 172.602 307.45 172.001 307.45C171.097 307.45 170.382 307.9 169.856 308.8C169.331 309.695 169.065 311.009 169.061 312.741C169.056 313.902 169.172 314.877 169.409 315.668C169.65 316.458 169.991 317.055 170.431 317.457C170.872 317.855 171.395 318.054 172.001 318.054ZM185.014 305.256C185.71 305.26 186.387 305.384 187.045 305.625C187.708 305.862 188.305 306.25 188.835 306.79C189.366 307.325 189.787 308.042 190.099 308.942C190.412 309.841 190.568 310.954 190.568 312.28C190.573 313.53 190.44 314.647 190.17 315.632C189.905 316.612 189.524 317.441 189.027 318.118C188.53 318.795 187.931 319.311 187.23 319.666C186.529 320.021 185.741 320.199 184.865 320.199C183.946 320.199 183.132 320.019 182.422 319.659C181.716 319.299 181.146 318.807 180.71 318.182C180.275 317.557 180.007 316.842 179.908 316.037H182.5C182.633 316.615 182.902 317.074 183.31 317.415C183.722 317.751 184.24 317.919 184.865 317.919C185.874 317.919 186.65 317.481 187.195 316.605C187.739 315.729 188.011 314.512 188.011 312.955H187.912C187.68 313.371 187.379 313.731 187.01 314.034C186.641 314.332 186.222 314.562 185.753 314.723C185.289 314.884 184.796 314.964 184.276 314.964C183.423 314.964 182.656 314.761 181.974 314.354C181.297 313.946 180.76 313.388 180.362 312.678C179.969 311.967 179.77 311.155 179.766 310.241C179.766 309.295 179.983 308.445 180.419 307.692C180.859 306.934 181.473 306.338 182.259 305.902C183.045 305.462 183.963 305.246 185.014 305.256ZM185.021 307.386C184.51 307.386 184.048 307.512 183.636 307.763C183.229 308.009 182.907 308.345 182.67 308.771C182.438 309.193 182.322 309.664 182.322 310.185C182.327 310.701 182.443 311.17 182.67 311.591C182.902 312.012 183.217 312.346 183.615 312.592C184.018 312.839 184.477 312.962 184.993 312.962C185.376 312.962 185.734 312.888 186.065 312.741C186.397 312.595 186.686 312.391 186.932 312.131C187.183 311.866 187.377 311.565 187.514 311.229C187.656 310.893 187.725 310.537 187.72 310.163C187.72 309.666 187.602 309.207 187.365 308.786C187.133 308.364 186.813 308.026 186.406 307.77C186.004 307.514 185.542 307.386 185.021 307.386ZM198.104 320.199C197.048 320.199 196.11 320.021 195.291 319.666C194.477 319.311 193.838 318.826 193.374 318.21C192.914 317.59 192.687 316.887 192.692 316.101C192.687 315.49 192.82 314.929 193.089 314.418C193.359 313.906 193.724 313.48 194.183 313.139C194.647 312.794 195.163 312.573 195.732 312.479V312.379C194.983 312.214 194.377 311.832 193.913 311.236C193.454 310.634 193.227 309.941 193.232 309.155C193.227 308.407 193.435 307.739 193.857 307.152C194.278 306.565 194.856 306.103 195.589 305.767C196.323 305.426 197.161 305.256 198.104 305.256C199.036 305.256 199.867 305.426 200.597 305.767C201.33 306.103 201.908 306.565 202.33 307.152C202.756 307.739 202.969 308.407 202.969 309.155C202.969 309.941 202.734 310.634 202.266 311.236C201.802 311.832 201.203 312.214 200.469 312.379V312.479C201.037 312.573 201.548 312.794 202.003 313.139C202.462 313.48 202.827 313.906 203.097 314.418C203.371 314.929 203.509 315.49 203.509 316.101C203.509 316.887 203.277 317.59 202.812 318.21C202.348 318.826 201.709 319.311 200.895 319.666C200.085 320.021 199.155 320.199 198.104 320.199ZM198.104 318.168C198.648 318.168 199.122 318.075 199.524 317.891C199.927 317.701 200.239 317.436 200.462 317.095C200.684 316.754 200.798 316.361 200.803 315.916C200.798 315.452 200.677 315.043 200.44 314.688C200.208 314.328 199.889 314.046 199.482 313.842C199.079 313.639 198.62 313.537 198.104 313.537C197.583 313.537 197.119 313.639 196.712 313.842C196.304 314.046 195.982 314.328 195.746 314.688C195.514 315.043 195.4 315.452 195.405 315.916C195.4 316.361 195.509 316.754 195.732 317.095C195.954 317.431 196.267 317.694 196.669 317.884C197.076 318.073 197.554 318.168 198.104 318.168ZM198.104 311.541C198.549 311.541 198.942 311.451 199.283 311.271C199.628 311.091 199.901 310.84 200.099 310.518C200.298 310.196 200.4 309.825 200.405 309.403C200.4 308.987 200.301 308.622 200.107 308.31C199.912 307.992 199.643 307.749 199.297 307.578C198.951 307.403 198.554 307.315 198.104 307.315C197.644 307.315 197.24 307.403 196.889 307.578C196.544 307.749 196.274 307.992 196.08 308.31C195.89 308.622 195.798 308.987 195.803 309.403C195.798 309.825 195.893 310.196 196.087 310.518C196.286 310.836 196.558 311.087 196.903 311.271C197.254 311.451 197.654 311.541 198.104 311.541ZM210.893 305.256C211.589 305.26 212.266 305.384 212.924 305.625C213.587 305.862 214.184 306.25 214.714 306.79C215.244 307.325 215.666 308.042 215.978 308.942C216.291 309.841 216.447 310.954 216.447 312.28C216.452 313.53 216.319 314.647 216.049 315.632C215.784 316.612 215.403 317.441 214.906 318.118C214.409 318.795 213.81 319.311 213.109 319.666C212.408 320.021 211.62 320.199 210.744 320.199C209.825 320.199 209.011 320.019 208.301 319.659C207.595 319.299 207.025 318.807 206.589 318.182C206.154 317.557 205.886 316.842 205.787 316.037H208.379C208.511 316.615 208.781 317.074 209.189 317.415C209.6 317.751 210.119 317.919 210.744 317.919C211.752 317.919 212.529 317.481 213.074 316.605C213.618 315.729 213.89 314.512 213.89 312.955H213.791C213.559 313.371 213.258 313.731 212.889 314.034C212.52 314.332 212.1 314.562 211.632 314.723C211.168 314.884 210.675 314.964 210.154 314.964C209.302 314.964 208.535 314.761 207.853 314.354C207.176 313.946 206.639 313.388 206.241 312.678C205.848 311.967 205.649 311.155 205.645 310.241C205.645 309.295 205.862 308.445 206.298 307.692C206.738 306.934 207.351 306.338 208.137 305.902C208.923 305.462 209.842 305.246 210.893 305.256ZM210.9 307.386C210.389 307.386 209.927 307.512 209.515 307.763C209.108 308.009 208.786 308.345 208.549 308.771C208.317 309.193 208.201 309.664 208.201 310.185C208.206 310.701 208.322 311.17 208.549 311.591C208.781 312.012 209.096 312.346 209.494 312.592C209.896 312.839 210.356 312.962 210.872 312.962C211.255 312.962 211.613 312.888 211.944 312.741C212.276 312.595 212.565 312.391 212.811 312.131C213.062 311.866 213.256 311.565 213.393 311.229C213.535 310.893 213.604 310.537 213.599 310.163C213.599 309.666 213.481 309.207 213.244 308.786C213.012 308.364 212.692 308.026 212.285 307.77C211.883 307.514 211.421 307.386 210.9 307.386Z" fill="white"/>
<g filter="url(#filter0_d_44_80)">
<circle cx="109" cy="138.096" r="71" fill="url(#paint0_linear_44_80)"/>
</g>
<g filter="url(#filter1_ddddddd_44_80)">
<ellipse cx="109.126" cy="138.096" rx="64.3162" ry="71" fill="url(#paint1_radial_44_80)"/>
<path d="M171.942 138.096C171.942 176.622 143.682 207.596 109.126 207.596C74.5698 207.596 46.3099 176.622 46.3099 138.096C46.3099 99.5689 74.5698 68.5957 109.126 68.5957C143.682 68.5957 171.942 99.5689 171.942 138.096Z" stroke="#6411D9" stroke-width="3"/>
</g>
<path d="M108.795 196.131C98.142 196.131 88.9091 193.787 81.0966 189.099C73.2841 184.412 67.2235 177.854 62.9148 169.426C58.6534 160.998 56.5227 151.15 56.5227 139.881C56.5227 128.612 58.6534 118.74 62.9148 110.264C67.2235 101.789 73.2841 95.2074 81.0966 90.5199C88.9091 85.8324 98.142 83.4886 108.795 83.4886C119.449 83.4886 128.682 85.8324 136.494 90.5199C144.307 95.2074 150.344 101.789 154.605 110.264C158.914 118.74 161.068 128.612 161.068 139.881C161.068 151.15 158.914 160.998 154.605 169.426C150.344 177.854 144.307 184.412 136.494 189.099C128.682 193.787 119.449 196.131 108.795 196.131ZM108.938 175.534C114.714 175.534 119.544 173.948 123.426 170.776C127.309 167.556 130.197 163.247 132.091 157.849C134.032 152.452 135.003 146.438 135.003 139.81C135.003 133.134 134.032 127.097 132.091 121.699C130.197 116.254 127.309 111.921 123.426 108.702C119.544 105.482 114.714 103.872 108.938 103.872C103.019 103.872 98.0947 105.482 94.1648 108.702C90.2822 111.921 87.3703 116.254 85.429 121.699C83.535 127.097 82.5881 133.134 82.5881 139.81C82.5881 146.438 83.535 152.452 85.429 157.849C87.3703 163.247 90.2822 167.556 94.1648 170.776C98.0947 173.948 103.019 175.534 108.938 175.534Z" fill="#6411D9"/>
<path d="M96.5866 158V121.636H110.507C113.135 121.636 115.319 122.051 117.059 122.879C118.811 123.696 120.119 124.815 120.983 126.235C121.859 127.656 122.297 129.265 122.297 131.065C122.297 132.544 122.013 133.811 121.445 134.864C120.876 135.906 120.113 136.752 119.154 137.403C118.195 138.054 117.124 138.522 115.94 138.806V139.161C117.231 139.232 118.468 139.629 119.651 140.351C120.847 141.061 121.823 142.067 122.581 143.369C123.339 144.671 123.717 146.246 123.717 148.092C123.717 149.974 123.262 151.667 122.35 153.17C121.439 154.662 120.066 155.84 118.231 156.704C116.396 157.568 114.088 158 111.306 158H96.5866ZM103.174 152.496H110.259C112.65 152.496 114.372 152.04 115.425 151.129C116.491 150.205 117.023 149.022 117.023 147.577C117.023 146.5 116.757 145.53 116.224 144.665C115.692 143.79 114.934 143.103 113.952 142.606C112.969 142.097 111.797 141.842 110.436 141.842H103.174V152.496ZM103.174 137.102H109.69C110.827 137.102 111.851 136.894 112.762 136.48C113.674 136.054 114.39 135.456 114.911 134.687C115.443 133.906 115.71 132.982 115.71 131.917C115.71 130.508 115.212 129.348 114.218 128.437C113.236 127.525 111.774 127.07 109.832 127.07H103.174V137.102Z" fill="#F27405"/>
<defs>
<filter id="filter0_d_44_80" x="34" y="67.0957" width="150" height="150" filterUnits="userSpaceOnUse" color-interpolation-filters="sRGB">
<feFlood flood-opacity="0" result="BackgroundImageFix"/>
<feColorMatrix in="SourceAlpha" type="matrix" values="0 0 0 0 0 0 0 0 0 0 0 0 0 0 0 0 0 0 127 0" result="hardAlpha"/>
<feOffset dy="4"/>
<feGaussianBlur stdDeviation="2"/>
<feComposite in2="hardAlpha" operator="out"/>
<feColorMatrix type="matrix" values="0 0 0 0 0 0 0 0 0 0 0 0 0 0 0 0 0 0 0.25 0"/>
<feBlend mode="normal" in2="BackgroundImageFix" result="effect1_dropShadow_44_80"/>
<feBlend mode="normal" in="SourceGraphic" in2="effect1_dropShadow_44_80" result="shape"/>
</filter>
<filter id="filter1_ddddddd_44_80" x="40.8099" y="67.0957" width="136.632" height="150" filterUnits="userSpaceOnUse" color-interpolation-filters="sRGB">
<feFlood flood-opacity="0" result="BackgroundImageFix"/>
<feColorMatrix in="SourceAlpha" type="matrix" values="0 0 0 0 0 0 0 0 0 0 0 0 0 0 0 0 0 0 127 0" result="hardAlpha"/>
<feOffset dy="4"/>
<feGaussianBlur stdDeviation="2"/>
<feComposite in2="hardAlpha" operator="out"/>
<feColorMatrix type="matrix" values="0 0 0 0 0 0 0 0 0 0 0 0 0 0 0 0 0 0 0.25 0"/>
<feBlend mode="normal" in2="BackgroundImageFix" result="effect1_dropShadow_44_80"/>
<feColorMatrix in="SourceAlpha" type="matrix" values="0 0 0 0 0 0 0 0 0 0 0 0 0 0 0 0 0 0 127 0" result="hardAlpha"/>
<feOffset dy="4"/>
<feGaussianBlur stdDeviation="2"/>
<feComposite in2="hardAlpha" operator="out"/>
<feColorMatrix type="matrix" values="0 0 0 0 0 0 0 0 0 0 0 0 0 0 0 0 0 0 0.25 0"/>
<feBlend mode="normal" in2="effect1_dropShadow_44_80" result="effect2_dropShadow_44_80"/>
<feColorMatrix in="SourceAlpha" type="matrix" values="0 0 0 0 0 0 0 0 0 0 0 0 0 0 0 0 0 0 127 0" result="hardAlpha"/>
<feOffset dy="4"/>
<feGaussianBlur stdDeviation="2"/>
<feComposite in2="hardAlpha" operator="out"/>
<feColorMatrix type="matrix" values="0 0 0 0 0 0 0 0 0 0 0 0 0 0 0 0 0 0 0.25 0"/>
<feBlend mode="normal" in2="effect2_dropShadow_44_80" result="effect3_dropShadow_44_80"/>
<feColorMatrix in="SourceAlpha" type="matrix" values="0 0 0 0 0 0 0 0 0 0 0 0 0 0 0 0 0 0 127 0" result="hardAlpha"/>
<feOffset dy="4"/>
<feGaussianBlur stdDeviation="2"/>
<feComposite in2="hardAlpha" operator="out"/>
<feColorMatrix type="matrix" values="0 0 0 0 0 0 0 0 0 0 0 0 0 0 0 0 0 0 0.25 0"/>
<feBlend mode="normal" in2="effect3_dropShadow_44_80" result="effect4_dropShadow_44_80"/>
<feColorMatrix in="SourceAlpha" type="matrix" values="0 0 0 0 0 0 0 0 0 0 0 0 0 0 0 0 0 0 127 0" result="hardAlpha"/>
<feOffset dy="4"/>
<feGaussianBlur stdDeviation="2"/>
<feComposite in2="hardAlpha" operator="out"/>
<feColorMatrix type="matrix" values="0 0 0 0 0 0 0 0 0 0 0 0 0 0 0 0 0 0 0.25 0"/>
<feBlend mode="normal" in2="effect4_dropShadow_44_80" result="effect5_dropShadow_44_80"/>
<feColorMatrix in="SourceAlpha" type="matrix" values="0 0 0 0 0 0 0 0 0 0 0 0 0 0 0 0 0 0 127 0" result="hardAlpha"/>
<feOffset dy="4"/>
<feGaussianBlur stdDeviation="2"/>
<feComposite in2="hardAlpha" operator="out"/>
<feColorMatrix type="matrix" values="0 0 0 0 0 0 0 0 0 0 0 0 0 0 0 0 0 0 0.25 0"/>
<feBlend mode="normal" in2="effect5_dropShadow_44_80" result="effect6_dropShadow_44_80"/>
<feColorMatrix in="SourceAlpha" type="matrix" values="0 0 0 0 0 0 0 0 0 0 0 0 0 0 0 0 0 0 127 0" result="hardAlpha"/>
<feOffset dy="4"/>
<feGaussianBlur stdDeviation="2"/>
<feComposite in2="hardAlpha" operator="out"/>
<feColorMatrix type="matrix" values="0 0 0 0 0 0 0 0 0 0 0 0 0 0 0 0 0 0 0.25 0"/>
<feBlend mode="normal" in2="effect6_dropShadow_44_80" result="effect7_dropShadow_44_80"/>
<feBlend mode="normal" in="SourceGraphic" in2="effect7_dropShadow_44_80" result="shape"/>
</filter>
<linearGradient id="paint0_linear_44_80" x1="109" y1="67.0957" x2="109" y2="209.096" gradientUnits="userSpaceOnUse">
<stop stop-color="#331B8C"/>
<stop offset="0.536458" stop-color="#6411D9"/>
<stop offset="1" stop-color="#F27405"/>
</linearGradient>
<radialGradient id="paint1_radial_44_80" cx="0" cy="0" r="1" gradientUnits="userSpaceOnUse" gradientTransform="translate(112.783 131.412) rotate(91.5808) scale(77.7134 70.3976)">
<stop stop-color="#6411D9"/>
<stop offset="1" stop-color="#331B8C"/>
</radialGradient>
</defs>
</svg>
